<svg width="24" height="22" viewBox="0 0 24 22" fill="none" xmlns="http://www.w3.org/2000/svg">
<path d="M17 9C17 6.87827 16.1571 4.84344 14.6569 3.34315C13.1566 1.84285 11.1217 1 9 1C6.87827 1 4.84344 1.84285 3.34315 3.34315C1.84285 4.84344 1 6.87827 1 9C1 13.993 6.539 19.193 8.399 20.799C8.57237 20.929 8.78329 20.9992 9 20.999" stroke="current" stroke-width="2" stroke-linecap="round" stroke-linejoin="round"/>
<path d="M9 12C10.6569 12 12 10.6569 12 9C12 7.34315 10.6569 6 9 6C7.34315 6 6 7.34315 6 9C6 10.6569 7.34315 12 9 12Z" stroke="current" stroke-width="2" stroke-linecap="round" stroke-linejoin="round"/>
<path fill-rule="evenodd" clip-rule="evenodd" d="M9.7759 15.9076C9.71728 16.0542 9.71728 16.2155 9.7759 16.3622C10.3469 17.6477 11.316 18.7468 12.5605 19.5202C13.805 20.2937 15.2688 20.7066 16.7663 20.7066C18.2638 20.7066 19.7276 20.2937 20.9721 19.5202C22.2166 18.7468 23.1857 17.6477 23.7567 16.3622C23.8153 16.2155 23.8153 16.0542 23.7567 15.9076C23.1857 14.6221 22.2166 13.5229 20.9721 12.7495C19.7276 11.976 18.2638 11.5632 16.7663 11.5632C15.2688 11.5632 13.805 11.976 12.5605 12.7495C11.316 13.5229 10.3469 14.6221 9.7759 15.9076ZM19.6599 16.1349C19.6599 17.7329 18.3644 19.0285 16.7663 19.0285C15.1682 19.0285 13.8727 17.7329 13.8727 16.1349C13.8727 14.5368 15.1682 13.2413 16.7663 13.2413C18.3644 13.2413 19.6599 14.5368 19.6599 16.1349Z" fill="current"/>
<circle cx="16.7663" cy="16.1349" r="1.70693" fill="current"/>
</svg>
